<?xml version="1.0" encoding="utf-8"?>
<!-- Generator: Adobe Illustrator 21.0.0, SVG Export Plug-In . SVG Version: 6.00 Build 0)  -->
<svg version="1.1" id="Layer_1" xmlns="http://www.w3.org/2000/svg" xmlns:xlink="http://www.w3.org/1999/xlink" x="0px" y="0px"
	 width="107px" height="35px" viewBox="0 0 107 35" enable-background="new 0 0 107 35" xml:space="preserve">
<g>
	<path d="M15.1,24.5L7.8,13.8L5.9,26.9H0.7l4-26.1l10.4,15.9L25.6,0.8l4,26.1h-5.2l-1.8-13.1L15.1,24.5z"/>
	<path d="M32.7,1.8C33.3,1.2,34,1,34.8,1s1.5,0.3,2.1,0.8c0.6,0.6,0.9,1.2,0.9,2c0,0.8-0.3,1.4-0.9,2c-0.6,0.6-1.3,0.8-2.1,0.8
		s-1.5-0.3-2.1-0.8c-0.6-0.6-0.9-1.2-0.9-2C31.9,3,32.2,2.3,32.7,1.8z M37.3,10.3v16.6h-4.9V10.3H37.3z"/>
	<path d="M41.4,34.8V10.3h4.9v3.1c1.3-2.3,3.3-3.4,6-3.4c2.4,0,4.4,0.7,6,2.2c1.6,1.4,2.4,3.6,2.4,6.5c0,2.9-0.8,5-2.4,6.5
		c-1.6,1.4-3.6,2.2-6,2.2c-2.7,0-4.7-1.1-6-3.4v11H41.4z M54.4,15.5c-0.9-0.8-2-1.2-3.4-1.2c-1.4,0-2.5,0.4-3.4,1.1
		c-0.9,0.7-1.3,1.8-1.3,3.3s0.4,2.5,1.3,3.3s2,1.1,3.4,1.1c1.4,0,2.6-0.4,3.4-1.1c0.9-0.7,1.3-1.8,1.3-3.2
		C55.8,17.3,55.3,16.3,54.4,15.5z"/>
	<path d="M71.6,14.6c-1,0-1.8,0.2-2.3,0.7c-0.5,0.4-0.7,1.2-0.7,2.4v9.2h-5V10.3h5v2.2c1.2-1.8,2.6-2.6,4.2-2.6c1.8,0,3.1,0.5,4,1.6
		l-2.5,3.9C73.6,14.9,72.6,14.6,71.6,14.6z"/>
	<path d="M80.5,12.1c1.9-1.6,4.2-2.4,6.8-2.4s4.9,0.8,6.8,2.4s2.8,3.7,2.8,6.5c0,2.7-0.9,4.9-2.8,6.5s-4.2,2.4-6.8,2.4
		s-4.9-0.8-6.8-2.4s-2.8-3.7-2.8-6.5C77.7,15.9,78.7,13.7,80.5,12.1z M83.9,22c0.9,0.9,2,1.3,3.5,1.3s2.6-0.4,3.5-1.3s1.3-2,1.3-3.4
		c0-1.4-0.4-2.5-1.3-3.4c-0.9-0.9-2-1.3-3.5-1.3s-2.6,0.4-3.5,1.3c-0.9,0.9-1.3,2-1.3,3.4C82.6,20,83.1,21.1,83.9,22z"/>
	<path fill="#F77358" d="M99.9,23c0.6-0.6,1.3-0.8,2.1-0.8s1.5,0.3,2.1,0.8s0.9,1.2,0.9,2s-0.3,1.5-0.9,2S102.8,28,102,28
		s-1.5-0.3-2.1-0.8s-0.9-1.2-0.9-2S99.3,23.6,99.9,23z"/>
</g>
</svg>
